# Blender v2.82 (sub 7) OBJ File: 'untitled.blend'
# www.blender.org
mtllib Карточка.mtl
o Карточка_для_карты_нормалей
v -0.041601 0.001000 -0.026500
v -0.037388 0.001000 -0.006933
v -0.036792 0.001000 -0.007681
v -0.033301 0.001000 0.006000
v 0.041399 0.001000 0.026500
v -0.033301 0.001000 -0.006000
v 0.041399 0.001000 -0.026500
v -0.033514 0.001000 -0.006933
v -0.041601 0.001000 0.026500
v -0.037601 0.001000 0.006000
v -0.037601 0.001000 -0.006000
v -0.033514 0.001000 0.006933
v -0.034111 0.001000 0.007681
v -0.034973 0.001000 0.008096
v -0.035930 0.001000 0.008096
v -0.036792 0.001000 0.007681
v -0.037388 0.001000 0.006933
v -0.035930 0.001000 -0.008096
v -0.034973 0.001000 -0.008096
v -0.034111 0.001000 -0.007681
v -0.041601 -0.001000 0.026500
v -0.041601 -0.001000 -0.026500
v -0.037601 -0.001000 -0.006000
v 0.041399 -0.001000 0.026500
v -0.033514 -0.001000 0.006933
v -0.033301 -0.001000 0.006000
v -0.034973 -0.001000 -0.008096
v -0.035930 -0.001000 -0.008096
v -0.037601 -0.001000 0.006000
v -0.037388 -0.001000 0.006933
v -0.036792 -0.001000 0.007681
v -0.034111 -0.001000 -0.007681
v 0.041399 -0.001000 -0.026500
v -0.033514 -0.001000 -0.006933
v -0.036792 -0.001000 -0.007681
v -0.037388 -0.001000 -0.006933
v -0.033301 -0.001000 -0.006000
v -0.035930 -0.001000 0.008096
v -0.034973 -0.001000 0.008096
v -0.034111 -0.001000 0.007681
v -0.033801 0.000866 0.006000
v -0.033965 0.000866 0.006716
v -0.034422 0.000866 0.007290
v -0.035084 0.000866 0.007609
v -0.035818 0.000866 0.007609
v -0.036480 0.000866 0.007290
v -0.036938 0.000866 0.006716
v -0.037101 0.000866 0.006000
v -0.034167 0.000500 0.006000
v -0.034294 0.000500 0.006557
v -0.034651 0.000500 0.007004
v -0.035165 0.000500 0.007252
v -0.035737 0.000500 0.007252
v -0.036252 0.000500 0.007004
v -0.036608 0.000500 0.006557
v -0.036735 0.000500 0.006000
v -0.034301 -0.000000 0.006000
v -0.034415 -0.000000 0.006499
v -0.034734 -0.000000 0.006899
v -0.035195 -0.000000 0.007121
v -0.035707 -0.000000 0.007121
v -0.036168 -0.000000 0.006899
v -0.036487 -0.000000 0.006499
v -0.036601 -0.000000 0.006000
v -0.034301 -0.000000 -0.006000
v -0.034167 0.000500 -0.006000
v -0.033801 0.000866 -0.006000
v -0.034167 -0.000500 0.006000
v -0.034294 -0.000500 0.006557
v -0.034651 -0.000500 0.007004
v -0.035165 -0.000500 0.007252
v -0.035737 -0.000500 0.007252
v -0.036252 -0.000500 0.007004
v -0.036608 -0.000500 0.006557
v -0.036735 -0.000500 0.006000
v -0.033801 -0.000866 0.006000
v -0.033965 -0.000866 0.006716
v -0.034422 -0.000866 0.007290
v -0.035084 -0.000866 0.007609
v -0.035818 -0.000866 0.007609
v -0.036480 -0.000866 0.007290
v -0.036938 -0.000866 0.006716
v -0.037101 -0.000866 0.006000
v -0.036601 -0.000000 -0.006000
v -0.036735 0.000500 -0.006000
v -0.037101 0.000866 -0.006000
v -0.036938 0.000866 -0.006716
v -0.036480 0.000866 -0.007290
v -0.035818 0.000866 -0.007609
v -0.035084 0.000866 -0.007609
v -0.034422 0.000866 -0.007290
v -0.033965 0.000866 -0.006716
v -0.036608 0.000500 -0.006557
v -0.036252 0.000500 -0.007004
v -0.035737 0.000500 -0.007252
v -0.035165 0.000500 -0.007252
v -0.034651 0.000500 -0.007004
v -0.034294 0.000500 -0.006557
v -0.036487 -0.000000 -0.006499
v -0.036168 -0.000000 -0.006899
v -0.035707 -0.000000 -0.007121
v -0.035195 -0.000000 -0.007121
v -0.034734 -0.000000 -0.006899
v -0.034415 -0.000000 -0.006499
v -0.034167 -0.000500 -0.006000
v -0.033801 -0.000866 -0.006000
v -0.036735 -0.000500 -0.006000
v -0.037101 -0.000866 -0.006000
v -0.036608 -0.000500 -0.006557
v -0.036252 -0.000500 -0.007004
v -0.035737 -0.000500 -0.007252
v -0.035165 -0.000500 -0.007252
v -0.034651 -0.000500 -0.007004
v -0.034294 -0.000500 -0.006557
v -0.036938 -0.000866 -0.006716
v -0.036480 -0.000866 -0.007290
v -0.035818 -0.000866 -0.007609
v -0.035084 -0.000866 -0.007609
v -0.034422 -0.000866 -0.007290
v -0.033965 -0.000866 -0.006716
v -0.042601 -0.000000 0.027500
v 0.042399 -0.000000 0.027500
v -0.042567 0.000259 0.027466
v 0.042365 0.000259 0.027466
v -0.042467 0.000500 0.027366
v 0.042265 0.000500 0.027366
v 0.041899 0.000866 0.027000
v -0.042101 0.000866 0.027000
v 0.042399 -0.000000 -0.027500
v 0.042365 0.000259 -0.027466
v 0.042265 0.000500 -0.027366
v 0.041899 0.000866 -0.027000
v -0.042601 -0.000000 -0.027500
v -0.042567 0.000259 -0.027466
v -0.042467 0.000500 -0.027366
v -0.042101 0.000866 -0.027000
v 0.042365 -0.000259 0.027466
v -0.042567 -0.000259 0.027466
v 0.042265 -0.000500 0.027366
v -0.042467 -0.000500 0.027366
v -0.042101 -0.000866 0.027000
v 0.041899 -0.000866 0.027000
v 0.042365 -0.000259 -0.027466
v 0.042265 -0.000500 -0.027366
v 0.041899 -0.000866 -0.027000
v -0.042567 -0.000259 -0.027466
v -0.042467 -0.000500 -0.027366
v -0.042101 -0.000866 -0.027000
vt 0.472628 0.762418
vt 0.300943 0.724119
vt 0.307507 0.718696
vt 0.187469 0.686964
vt 0.007599 0.007873
vt 0.292758 0.686964
vt 0.472628 0.007873
vt 0.300943 0.688899
vt 0.007599 0.762418
vt 0.187469 0.726055
vt 0.292758 0.726055
vt 0.179284 0.688899
vt 0.172720 0.694323
vt 0.169077 0.702160
vt 0.169077 0.710859
vt 0.172720 0.718696
vt 0.179284 0.724119
vt 0.311150 0.710859
vt 0.311150 0.702160
vt 0.307507 0.694323
vt 0.952855 0.762418
vt 0.487826 0.762418
vt 0.667696 0.726055
vt 0.952855 0.007873
vt 0.781170 0.688899
vt 0.772985 0.686964
vt 0.649304 0.702160
vt 0.649304 0.710859
vt 0.772985 0.726055
vt 0.781170 0.724119
vt 0.787734 0.718696
vt 0.652947 0.694323
vt 0.487826 0.007873
vt 0.659511 0.688899
vt 0.652947 0.718696
vt 0.659511 0.724119
vt 0.667696 0.686964
vt 0.791377 0.710859
vt 0.791377 0.702160
vt 0.787734 0.694323
vt 0.187469 0.691509
vt 0.181187 0.692995
vt 0.176150 0.697157
vt 0.173354 0.703171
vt 0.173354 0.709847
vt 0.176150 0.715862
vt 0.181187 0.720024
vt 0.187469 0.721509
vt 0.480227 0.885181
vt 0.483439 0.885181
vt 0.480227 0.891689
vt 0.187469 0.694837
vt 0.182581 0.695993
vt 0.178661 0.699232
vt 0.176485 0.703912
vt 0.176485 0.709107
vt 0.178661 0.713787
vt 0.182581 0.717026
vt 0.510622 0.891689
vt 0.507410 0.890245
vt 0.510622 0.885181
vt 0.507410 0.885181
vt 0.487826 0.885181
vt 0.483439 0.890245
vt 0.487826 0.889717
vt 0.483439 0.894307
vt 0.487826 0.893354
vt 0.510622 0.766964
vt 0.514937 0.767723
vt 0.510768 0.771644
vt 0.515068 0.771915
vt 0.510768 0.776839
vt 0.515068 0.776568
vt 0.510622 0.781519
vt 0.514937 0.780760
vt 0.507410 0.894307
vt 0.503023 0.893354
vt 0.503023 0.889717
vt 0.503023 0.885181
vt 0.487826 0.776090
vt 0.483439 0.776090
vt 0.480227 0.776090
vt 0.292758 0.691509
vt 0.492213 0.885181
vt 0.492213 0.890245
vt 0.492213 0.894307
vt 0.519376 0.766964
vt 0.519522 0.771644
vt 0.519522 0.776839
vt 0.519376 0.781519
vt 0.498636 0.894307
vt 0.498636 0.890245
vt 0.498636 0.885181
vt 0.495424 0.885181
vt 0.777873 0.695993
vt 0.772985 0.691509
vt 0.779267 0.692995
vt 0.781793 0.699232
vt 0.784304 0.697157
vt 0.783969 0.703912
vt 0.787100 0.703171
vt 0.522937 0.770904
vt 0.522937 0.777579
vt 0.783969 0.709107
vt 0.787100 0.709847
vt 0.781793 0.713787
vt 0.784304 0.715862
vt 0.777873 0.717026
vt 0.779267 0.720024
vt 0.772985 0.718182
vt 0.495424 0.891689
vt 0.495424 0.885181
vt 0.772985 0.721509
vt 0.503023 0.776090
vt 0.507410 0.776090
vt 0.510622 0.776090
vt 0.292758 0.721509
vt 0.299040 0.720024
vt 0.304077 0.715862
vt 0.306873 0.709847
vt 0.306873 0.703171
vt 0.304077 0.697157
vt 0.299040 0.692995
vt 0.510622 0.769581
vt 0.292758 0.718182
vt 0.297646 0.717026
vt 0.301566 0.713787
vt 0.303742 0.709107
vt 0.303742 0.703912
vt 0.301566 0.699232
vt 0.297646 0.695993
vt 0.483439 0.771025
vt 0.507410 0.771025
vt 0.503023 0.771554
vt 0.507410 0.766964
vt 0.503023 0.767916
vt 0.522937 0.766964
vt 0.527252 0.767723
vt 0.523083 0.771644
vt 0.527383 0.771915
vt 0.523083 0.776839
vt 0.527383 0.776568
vt 0.522937 0.781519
vt 0.527252 0.780760
vt 0.483439 0.766964
vt 0.487826 0.767916
vt 0.487826 0.771554
vt 0.492213 0.776090
vt 0.495424 0.776090
vt 0.667696 0.691509
vt 0.498636 0.776090
vt 0.495424 0.776090
vt 0.667696 0.721509
vt 0.498636 0.771025
vt 0.498636 0.766964
vt 0.531691 0.766964
vt 0.531837 0.771644
vt 0.531837 0.776839
vt 0.531691 0.781519
vt 0.492213 0.766964
vt 0.492213 0.771025
vt 0.662808 0.717026
vt 0.661414 0.720024
vt 0.658888 0.713787
vt 0.656377 0.715862
vt 0.656712 0.709107
vt 0.653581 0.709847
vt 0.535252 0.770904
vt 0.535252 0.777579
vt 0.656712 0.703912
vt 0.653581 0.703171
vt 0.658888 0.699232
vt 0.656377 0.697157
vt 0.662808 0.695993
vt 0.661414 0.692995
vt 0.667696 0.694837
vt 0.495424 0.769581
vt 0.964752 0.000000
vt 0.964752 0.772727
vt 0.962506 0.000310
vt 0.962507 0.772417
vt 0.960454 0.001218
vt 0.960454 0.771509
vt 0.000000 0.770291
vt 0.000000 0.000000
vt 0.003212 0.003328
vt 0.003212 0.766964
vt 0.989190 1.000000
vt 0.989190 0.500000
vt 0.991461 0.500310
vt 0.991461 0.999690
vt 0.993577 0.501218
vt 0.993577 0.998782
vt 0.480227 0.000000
vt 0.477015 0.003328
vt 0.992401 0.500000
vt 0.992401 0.000000
vt 0.994672 0.499690
vt 0.994672 0.000310
vt 0.996788 0.498782
vt 0.996788 0.001218
vt 1.000000 0.004545
vt 1.000000 0.495455
vt 0.477015 0.766964
vt 0.967038 0.772417
vt 0.967038 0.000310
vt 0.969208 0.771509
vt 0.969208 0.001218
vt 0.972628 0.004545
vt 0.972628 0.768182
vt 0.957242 0.003328
vt 0.957242 0.766964
vt 0.986919 0.500310
vt 0.986919 0.999690
vt 0.984803 0.501218
vt 0.984803 0.998782
vt 0.480227 0.000000
vt 0.960454 0.000000
vt 0.483439 0.003328
vt 0.976927 0.000000
vt 0.976927 0.772727
vt 0.974681 0.772417
vt 0.974681 0.000310
vt 0.972628 0.771509
vt 0.972628 0.001218
vt 0.480227 0.770291
vt 0.990130 0.499690
vt 0.990130 0.000310
vt 0.988014 0.498782
vt 0.988014 0.001218
vt 0.984803 0.495455
vt 0.984803 0.004545
vt 0.483439 0.766964
vt 0.979213 0.772417
vt 0.979213 0.000310
vt 0.981383 0.771509
vt 0.981383 0.001218
vt 0.984803 0.004545
vt 0.984803 0.768182
vn 0.0000 1.0000 0.0000
vn 0.0000 -1.0000 0.0000
vn -0.2584 0.9642 -0.0590
vn -0.2072 0.9642 -0.1652
vn -0.1150 0.9642 -0.2388
vn 0.0000 0.9642 -0.2650
vn 0.1150 0.9642 -0.2388
vn 0.2072 0.9642 -0.1652
vn 0.2584 0.9642 -0.0590
vn -0.6981 0.6981 -0.1593
vn -0.5598 0.6981 -0.4464
vn -0.3107 0.6981 -0.6451
vn 0.0000 0.6981 -0.7160
vn 0.3107 0.6981 -0.6451
vn 0.5598 0.6981 -0.4464
vn 0.6981 0.6981 -0.1593
vn -0.9433 0.2528 -0.2153
vn -0.9433 0.2527 -0.2153
vn -0.7564 0.2528 -0.6032
vn -0.7564 0.2527 -0.6032
vn -0.4198 0.2528 -0.8717
vn 0.0000 0.2527 -0.9675
vn 0.0000 0.2528 -0.9675
vn 0.4198 0.2527 -0.8717
vn 0.7564 0.2527 -0.6032
vn 0.7564 0.2528 -0.6032
vn 0.9433 0.2528 -0.2153
vn 0.9433 0.2527 -0.2153
vn -0.9659 0.2588 0.0000
vn -0.7071 0.7071 0.0000
vn -0.2588 0.9659 0.0000
vn -0.9433 -0.2528 -0.2153
vn -0.9433 -0.2527 -0.2153
vn -0.7564 -0.2528 -0.6032
vn -0.4198 -0.2527 -0.8717
vn -0.4198 -0.2528 -0.8717
vn 0.0000 -0.2527 -0.9675
vn 0.4198 -0.2527 -0.8717
vn 0.7564 -0.2527 -0.6032
vn 0.7564 -0.2528 -0.6032
vn 0.9433 -0.2528 -0.2153
vn -0.6981 -0.6981 -0.1593
vn -0.5598 -0.6981 -0.4464
vn -0.3107 -0.6981 -0.6451
vn 0.0000 -0.6981 -0.7160
vn 0.3107 -0.6981 -0.6451
vn 0.5598 -0.6981 -0.4464
vn 0.6981 -0.6981 -0.1593
vn -0.2584 -0.9642 -0.0590
vn -0.2072 -0.9642 -0.1652
vn -0.1150 -0.9642 -0.2388
vn 0.0000 -0.9642 -0.2650
vn 0.1150 -0.9642 -0.2388
vn 0.2072 -0.9642 -0.1652
vn 0.2584 -0.9642 -0.0590
vn 0.9659 0.2588 0.0000
vn 0.7071 0.7071 0.0000
vn 0.2588 0.9659 0.0000
vn 0.2584 0.9642 0.0590
vn 0.2072 0.9642 0.1652
vn 0.1150 0.9642 0.2388
vn 0.0000 0.9642 0.2650
vn -0.1150 0.9642 0.2388
vn -0.2072 0.9642 0.1652
vn -0.2584 0.9642 0.0590
vn 0.6981 0.6981 0.1593
vn 0.5598 0.6981 0.4464
vn 0.3107 0.6981 0.6451
vn 0.0000 0.6981 0.7160
vn -0.3107 0.6981 0.6451
vn -0.5598 0.6981 0.4464
vn -0.6981 0.6981 0.1593
vn 0.9433 0.2528 0.2153
vn 0.9433 0.2527 0.2153
vn 0.7565 0.2527 0.6032
vn 0.7565 0.2528 0.6032
vn 0.4198 0.2527 0.8717
vn 0.4198 0.2528 0.8717
vn 0.0000 0.2528 0.9675
vn -0.4198 0.2528 0.8717
vn -0.7564 0.2528 0.6032
vn -0.7565 0.2528 0.6032
vn -0.9433 0.2527 0.2153
vn -0.9659 -0.2588 0.0000
vn -0.7071 -0.7071 0.0000
vn -0.2588 -0.9659 0.0000
vn 0.9659 -0.2588 0.0000
vn 0.7071 -0.7071 0.0000
vn 0.2588 -0.9659 0.0000
vn 0.9433 -0.2527 0.2153
vn 0.9433 -0.2528 0.2153
vn 0.7565 -0.2527 0.6032
vn 0.4198 -0.2527 0.8717
vn 0.0000 -0.2528 0.9675
vn -0.4198 -0.2528 0.8717
vn -0.7565 -0.2527 0.6032
vn -0.7564 -0.2528 0.6032
vn -0.9433 -0.2527 0.2153
vn -0.9433 -0.2528 0.2153
vn 0.6981 -0.6981 0.1593
vn 0.5598 -0.6981 0.4464
vn 0.3107 -0.6981 0.6451
vn 0.0000 -0.6981 0.7160
vn -0.3107 -0.6981 0.6451
vn -0.5598 -0.6981 0.4464
vn -0.6981 -0.6981 0.1593
vn 0.2584 -0.9642 0.0590
vn 0.2072 -0.9642 0.1652
vn 0.1150 -0.9642 0.2388
vn 0.0000 -0.9642 0.2650
vn -0.1150 -0.9642 0.2388
vn -0.2072 -0.9642 0.1652
vn -0.2584 -0.9642 0.0590
vn 0.0000 0.1305 0.9914
vn 0.0000 0.3827 0.9239
vn 0.0000 0.7071 0.7071
vn 0.0000 0.9659 0.2588
vn 0.9914 0.1305 0.0000
vn 0.9239 0.3827 0.0000
vn -0.9914 0.1305 0.0000
vn -0.9239 0.3827 0.0000
vn 0.0000 -0.1305 0.9914
vn 0.0000 -0.3827 0.9239
vn 0.0000 -0.7071 0.7071
vn 0.0000 -0.9659 0.2588
vn 0.9914 -0.1305 0.0000
vn 0.9239 -0.3827 0.0000
vn 0.0000 0.1305 -0.9914
vn 0.0000 0.3827 -0.9239
vn 0.0000 0.7071 -0.7071
vn 0.0000 0.9659 -0.2588
vn -0.9914 -0.1305 0.0000
vn -0.9239 -0.3827 0.0000
vn 0.0000 -0.1305 -0.9914
vn 0.0000 -0.3827 -0.9239
vn 0.0000 -0.7071 -0.7071
vn 0.0000 -0.9659 -0.2588
usemtl Материал
s off
f 1/1/1 2/2/1 3/3/1
f 4/4/1 5/5/1 6/6/1
f 6/6/1 5/5/1 7/7/1
f 6/6/1 7/7/1 8/8/1
f 9/9/1 10/10/1 1/1/1
f 1/1/1 10/10/1 11/11/1
f 1/1/1 11/11/1 2/2/1
f 4/4/1 12/12/1 5/5/1
f 5/5/1 12/12/1 13/13/1
f 5/5/1 13/13/1 9/9/1
f 9/9/1 13/13/1 14/14/1
f 9/9/1 14/14/1 15/15/1
f 15/15/1 16/16/1 9/9/1
f 9/9/1 16/16/1 17/17/1
f 9/9/1 17/17/1 10/10/1
f 3/3/1 18/18/1 1/1/1
f 1/1/1 18/18/1 19/19/1
f 1/1/1 19/19/1 7/7/1
f 7/7/1 19/19/1 20/20/1
f 7/7/1 20/20/1 8/8/1
f 21/21/2 22/22/2 23/23/2
f 24/24/2 25/25/2 26/26/2
f 22/22/2 27/27/2 28/28/2
f 23/23/2 29/29/2 21/21/2
f 21/21/2 29/29/2 30/30/2
f 21/21/2 30/30/2 31/31/2
f 27/27/2 22/22/2 32/32/2
f 32/32/2 22/22/2 33/33/2
f 32/32/2 33/33/2 34/34/2
f 28/28/2 35/35/2 22/22/2
f 22/22/2 35/35/2 36/36/2
f 22/22/2 36/36/2 23/23/2
f 24/24/2 26/26/2 33/33/2
f 33/33/2 26/26/2 37/37/2
f 33/33/2 37/37/2 34/34/2
f 31/31/2 38/38/2 21/21/2
f 21/21/2 38/38/2 39/39/2
f 21/21/2 39/39/2 24/24/2
f 24/24/2 39/39/2 40/40/2
f 24/24/2 40/40/2 25/25/2
f 4/4/3 41/41/3 12/12/3
f 12/12/3 41/41/3 42/42/3
f 12/12/4 42/42/4 13/13/4
f 13/13/4 42/42/4 43/43/4
f 13/13/5 43/43/5 14/14/5
f 14/14/5 43/43/5 44/44/5
f 14/14/6 44/44/6 15/15/6
f 15/15/6 44/44/6 45/45/6
f 15/15/7 45/45/7 16/16/7
f 16/16/7 45/45/7 46/46/7
f 16/16/8 46/46/8 17/17/8
f 17/17/8 46/46/8 47/47/8
f 17/17/9 47/47/9 10/10/9
f 10/10/9 47/47/9 48/48/9
f 41/49/10 49/50/10 42/51/10
f 42/42/10 49/52/10 50/53/10
f 42/42/11 50/53/11 43/43/11
f 43/43/11 50/53/11 51/54/11
f 43/43/12 51/54/12 44/44/12
f 44/44/12 51/54/12 52/55/12
f 44/44/13 52/55/13 45/45/13
f 45/45/13 52/55/13 53/56/13
f 45/45/14 53/56/14 46/46/14
f 46/46/14 53/56/14 54/57/14
f 46/46/15 54/57/15 47/47/15
f 47/47/15 54/57/15 55/58/15
f 47/59/16 55/60/16 48/61/16
f 48/61/16 55/60/16 56/62/16
f 49/50/17 57/63/17 50/64/17
f 50/64/18 57/63/18 58/65/18
f 50/64/19 58/65/19 51/66/19
f 51/66/20 58/65/20 59/67/20
f 51/68/21 59/69/21 52/70/21
f 52/70/21 59/69/21 60/71/21
f 52/70/22 60/71/22 53/72/22
f 53/72/23 60/71/23 61/73/23
f 53/72/24 61/73/24 54/74/24
f 54/74/24 61/73/24 62/75/24
f 54/76/25 62/77/25 55/60/25
f 55/60/26 62/77/26 63/78/26
f 55/60/27 63/78/27 56/62/27
f 56/62/28 63/78/28 64/79/28
f 65/80/29 57/63/29 49/50/29
f 65/80/29 49/50/29 66/81/29
f 66/81/30 49/50/30 41/49/30
f 66/81/30 41/49/30 67/82/30
f 67/83/31 41/41/31 4/4/31
f 67/83/31 4/4/31 6/6/31
f 57/63/32 68/84/32 58/65/32
f 58/65/33 68/84/33 69/85/33
f 58/65/34 69/85/34 59/67/34
f 59/67/34 69/85/34 70/86/34
f 59/69/35 70/87/35 60/71/35
f 60/71/36 70/87/36 71/88/36
f 60/71/37 71/88/37 61/73/37
f 61/73/37 71/88/37 72/89/37
f 61/73/38 72/89/38 62/75/38
f 62/75/38 72/89/38 73/90/38
f 62/77/39 73/91/39 63/78/39
f 63/78/40 73/91/40 74/92/40
f 63/78/41 74/92/41 64/79/41
f 64/79/41 74/92/41 75/93/41
f 68/84/42 76/94/42 69/85/42
f 69/95/42 76/96/42 77/97/42
f 69/95/43 77/97/43 70/98/43
f 70/98/43 77/97/43 78/99/43
f 70/98/44 78/99/44 71/100/44
f 71/100/44 78/99/44 79/101/44
f 71/88/45 79/102/45 72/89/45
f 72/89/45 79/102/45 80/103/45
f 72/104/46 80/105/46 73/106/46
f 73/106/46 80/105/46 81/107/46
f 73/106/47 81/107/47 74/108/47
f 74/108/47 81/107/47 82/109/47
f 74/108/48 82/109/48 75/110/48
f 75/93/48 82/111/48 83/112/48
f 76/96/49 26/26/49 77/97/49
f 77/97/49 26/26/49 25/25/49
f 77/97/50 25/25/50 78/99/50
f 78/99/50 25/25/50 40/40/50
f 78/99/51 40/40/51 79/101/51
f 79/101/51 40/40/51 39/39/51
f 79/101/52 39/39/52 80/105/52
f 80/105/52 39/39/52 38/38/52
f 80/105/53 38/38/53 81/107/53
f 81/107/53 38/38/53 31/31/53
f 81/107/54 31/31/54 82/109/54
f 82/109/54 31/31/54 30/30/54
f 82/109/55 30/30/55 83/113/55
f 83/113/55 30/30/55 29/29/55
f 64/79/56 84/114/56 85/115/56
f 64/79/56 85/115/56 56/62/56
f 56/62/57 85/115/57 86/116/57
f 56/62/57 86/116/57 48/61/57
f 48/48/58 86/117/58 11/11/58
f 48/48/58 11/11/58 10/10/58
f 11/11/59 86/117/59 2/2/59
f 2/2/59 86/117/59 87/118/59
f 2/2/60 87/118/60 3/3/60
f 3/3/60 87/118/60 88/119/60
f 3/3/61 88/119/61 18/18/61
f 18/18/61 88/119/61 89/120/61
f 18/18/62 89/120/62 19/19/62
f 19/19/62 89/120/62 90/121/62
f 19/19/63 90/121/63 20/20/63
f 20/20/63 90/121/63 91/122/63
f 20/20/64 91/122/64 8/8/64
f 8/8/64 91/122/64 92/123/64
f 8/8/65 92/123/65 6/6/65
f 6/6/65 92/123/65 67/83/65
f 86/116/66 85/115/66 87/124/66
f 87/118/66 85/125/66 93/126/66
f 87/118/67 93/126/67 88/119/67
f 88/119/67 93/126/67 94/127/67
f 88/119/68 94/127/68 89/120/68
f 89/120/68 94/127/68 95/128/68
f 89/120/69 95/128/69 90/121/69
f 90/121/69 95/128/69 96/129/69
f 90/121/70 96/129/70 91/122/70
f 91/122/70 96/129/70 97/130/70
f 91/122/71 97/130/71 92/123/71
f 92/123/71 97/130/71 98/131/71
f 92/123/72 98/131/72 67/83/72
f 67/82/72 98/132/72 66/81/72
f 85/115/73 84/114/73 93/133/73
f 93/133/74 84/114/74 99/134/74
f 93/133/75 99/134/75 94/135/75
f 94/135/76 99/134/76 100/136/76
f 94/137/77 100/138/77 95/139/77
f 95/139/78 100/138/78 101/140/78
f 95/139/79 101/140/79 96/141/79
f 96/141/79 101/140/79 102/142/79
f 96/141/80 102/142/80 97/143/80
f 97/143/80 102/142/80 103/144/80
f 97/145/81 103/146/81 98/132/81
f 98/132/82 103/146/82 104/147/82
f 98/132/83 104/147/83 66/81/83
f 66/81/83 104/147/83 65/80/83
f 57/63/84 65/80/84 105/148/84
f 57/63/84 105/148/84 68/84/84
f 68/84/85 105/148/85 106/149/85
f 68/84/85 106/149/85 76/94/85
f 76/96/86 106/150/86 37/37/86
f 76/96/86 37/37/86 26/26/86
f 84/114/87 64/79/87 75/93/87
f 84/114/87 75/93/87 107/151/87
f 107/151/88 75/93/88 83/112/88
f 107/151/88 83/112/88 108/152/88
f 108/153/89 83/113/89 29/29/89
f 108/153/89 29/29/89 23/23/89
f 84/114/90 107/151/90 99/134/90
f 99/134/91 107/151/91 109/154/91
f 99/134/92 109/154/92 100/136/92
f 100/136/92 109/154/92 110/155/92
f 100/138/93 110/156/93 101/140/93
f 101/140/93 110/156/93 111/157/93
f 101/140/94 111/157/94 102/142/94
f 102/142/94 111/157/94 112/158/94
f 102/142/95 112/158/95 103/144/95
f 103/144/95 112/158/95 113/159/95
f 103/146/96 113/160/96 104/147/96
f 104/147/97 113/160/97 114/161/97
f 104/147/98 114/161/98 65/80/98
f 65/80/99 114/161/99 105/148/99
f 107/151/100 108/152/100 109/154/100
f 109/162/100 108/153/100 115/163/100
f 109/162/101 115/163/101 110/164/101
f 110/164/101 115/163/101 116/165/101
f 110/164/102 116/165/102 111/166/102
f 111/166/102 116/165/102 117/167/102
f 111/157/103 117/168/103 112/158/103
f 112/158/103 117/168/103 118/169/103
f 112/170/104 118/171/104 113/172/104
f 113/172/104 118/171/104 119/173/104
f 113/172/105 119/173/105 114/174/105
f 114/174/105 119/173/105 120/175/105
f 114/174/106 120/175/106 105/176/106
f 105/148/106 120/177/106 106/149/106
f 108/153/107 23/23/107 115/163/107
f 115/163/107 23/23/107 36/36/107
f 115/163/108 36/36/108 116/165/108
f 116/165/108 36/36/108 35/35/108
f 116/165/109 35/35/109 117/167/109
f 117/167/109 35/35/109 28/28/109
f 117/167/110 28/28/110 118/171/110
f 118/171/110 28/28/110 27/27/110
f 118/171/111 27/27/111 119/173/111
f 119/173/111 27/27/111 32/32/111
f 119/173/112 32/32/112 120/175/112
f 120/175/112 32/32/112 34/34/112
f 120/175/113 34/34/113 106/150/113
f 106/150/113 34/34/113 37/37/113
f 121/178/114 122/179/114 123/180/114
f 123/180/114 122/179/114 124/181/114
f 123/180/115 124/181/115 125/182/115
f 124/181/115 126/183/115 125/182/115
f 125/184/116 126/185/116 127/186/116
f 125/184/116 127/186/116 128/187/116
f 128/187/117 127/186/117 5/5/117
f 128/187/117 5/5/117 9/9/117
f 122/188/118 129/189/118 130/190/118
f 122/188/118 130/190/118 124/191/118
f 124/191/119 130/190/119 131/192/119
f 124/191/119 131/192/119 126/193/119
f 126/185/57 131/194/57 132/195/57
f 126/185/57 132/195/57 127/186/57
f 127/186/58 132/195/58 7/7/58
f 127/186/58 7/7/58 5/5/58
f 133/196/120 121/197/120 134/198/120
f 134/198/120 121/197/120 123/199/120
f 134/198/121 123/199/121 135/200/121
f 123/199/121 125/201/121 135/200/121
f 135/200/30 125/201/30 128/202/30
f 135/200/30 128/202/30 136/203/30
f 136/204/31 128/187/31 9/9/31
f 136/204/31 9/9/31 1/1/31
f 122/179/122 121/178/122 137/205/122
f 137/205/122 121/178/122 138/206/122
f 137/205/123 138/206/123 139/207/123
f 138/206/123 140/208/123 139/207/123
f 139/207/124 140/208/124 141/209/124
f 139/207/124 141/209/124 142/210/124
f 142/211/125 141/212/125 21/21/125
f 142/211/125 21/21/125 24/24/125
f 129/189/126 122/188/126 143/213/126
f 143/213/126 122/188/126 137/214/126
f 143/213/127 137/214/127 144/215/127
f 137/214/127 139/216/127 144/215/127
f 144/217/88 139/218/88 142/211/88
f 144/217/88 142/211/88 145/219/88
f 145/219/89 142/211/89 24/24/89
f 145/219/89 24/24/89 33/33/89
f 129/220/128 133/221/128 134/222/128
f 129/220/128 134/222/128 130/223/128
f 130/223/129 134/222/129 135/224/129
f 130/223/129 135/224/129 131/225/129
f 131/194/130 135/226/130 136/204/130
f 131/194/130 136/204/130 132/195/130
f 132/195/131 136/204/131 1/1/131
f 132/195/131 1/1/131 7/7/131
f 121/197/132 133/196/132 146/227/132
f 121/197/132 146/227/132 138/228/132
f 138/228/133 146/227/133 147/229/133
f 138/228/133 147/229/133 140/230/133
f 140/230/85 147/229/85 148/231/85
f 140/230/85 148/231/85 141/232/85
f 141/212/86 148/233/86 22/22/86
f 141/212/86 22/22/86 21/21/86
f 133/221/134 129/220/134 146/234/134
f 146/234/134 129/220/134 143/235/134
f 146/234/135 143/235/135 147/236/135
f 143/235/135 144/237/135 147/236/135
f 147/236/136 144/237/136 145/238/136
f 147/236/136 145/238/136 148/239/136
f 148/233/137 145/219/137 33/33/137
f 148/233/137 33/33/137 22/22/137
