# Blender v2.82 (sub 7) OBJ File: 'Биометрический терминал.blend'
# www.blender.org
mtllib Биометрический терминал.mtl
v -0.101135 -0.064702 -0.055717
v -0.080135 -0.022801 -0.030674
v -0.046135 -0.022801 -0.030674
v -0.080135 0.013326 -0.009081
v -0.101135 0.055362 0.016044
v -0.046135 0.013326 -0.009081
v 0.113865 0.055362 0.016044
v 0.113865 -0.064702 -0.055717
v -0.046135 0.012557 -0.007793
v 0.113865 0.054593 0.017331
v -0.101135 0.054593 0.017331
v 0.113865 -0.065471 -0.054430
v -0.046135 -0.023570 -0.029386
v -0.101135 -0.065471 -0.054430
v -0.080135 -0.023570 -0.029386
v -0.080135 0.012557 -0.007793
vn 0.0000 0.5130 -0.8584
vn 0.0000 -0.5130 0.8584
vn 1.0000 0.0000 0.0000
vn 0.0000 -0.8584 -0.5130
vn -1.0000 0.0000 0.0000
vn 0.0000 0.8584 0.5130
g Стеклянная_крышка_Стеклянная_крышка_Стекло
usemtl Стекло
s off
f 1//1 2//1 3//1
f 2//1 1//1 4//1
f 4//1 1//1 5//1
f 4//1 5//1 6//1
f 6//1 5//1 7//1
f 6//1 7//1 3//1
f 3//1 7//1 8//1
f 3//1 8//1 1//1
f 9//2 10//2 11//2
f 10//2 9//2 12//2
f 12//2 9//2 13//2
f 12//2 13//2 14//2
f 14//2 13//2 15//2
f 14//2 15//2 11//2
f 11//2 15//2 16//2
f 11//2 16//2 9//2
f 8//3 7//3 12//3
f 12//3 7//3 10//3
f 1//4 8//4 14//4
f 14//4 8//4 12//4
f 5//5 1//5 11//5
f 11//5 1//5 14//5
f 7//6 5//6 10//6
f 10//6 5//6 11//6
f 6//5 3//5 9//5
f 9//5 3//5 13//5
f 3//6 2//6 13//6
f 13//6 2//6 15//6
f 2//3 4//3 15//3
f 15//3 4//3 16//3
f 4//4 6//4 16//4
f 16//4 6//4 9//4
