# Blender v2.82 (sub 7) OBJ File: 'План Эвакуации.blend'
# www.blender.org
mtllib План Эвакуации.mtl
o Cube
v 0.300000 0.200000 -0.002500
v 0.300000 -0.200000 -0.002500
v 0.300000 0.200000 0.002500
v 0.300000 -0.200000 0.002500
v -0.300000 0.200000 -0.002500
v -0.300000 -0.200000 -0.002500
v -0.300000 0.200000 0.002500
v -0.300000 -0.200000 0.002500
vt 0.064421 0.818717
vt 0.131817 0.818718
vt 0.131817 0.819270
vt 0.064421 0.819268
vt 0.997040 -0.000500
vt 0.997052 0.996752
vt 0.001778 0.996858
vt 0.001767 -0.000393
vt 0.109352 0.818718
vt 0.064421 0.818717
vt 0.064421 0.818165
vt 0.109352 0.818166
vt 0.131817 0.819821
vt 0.064421 0.819819
vt 0.064421 0.819268
vt 0.131817 0.819270
vt 0.109352 0.818166
vt 0.154283 0.818168
vt 0.154283 0.818719
vt 0.109352 0.818718
vt 0.131816 0.863925
vt 0.131815 0.908029
vt 0.064418 0.908028
vt 0.064419 0.863924
vn 0.0000 1.0000 0.0000
vn 0.0000 0.0000 1.0000
vn -1.0000 0.0000 0.0000
vn 0.0000 -1.0000 0.0000
vn 1.0000 0.0000 0.0000
vn 0.0000 0.0000 -1.0000
usemtl План_эвакуации
s off
f 1/1/1 5/2/1 7/3/1 3/4/1
f 4/5/2 3/6/2 7/7/2 8/8/2
f 8/9/3 7/10/3 5/11/3 6/12/3
f 6/13/4 2/14/4 4/15/4 8/16/4
f 2/17/5 1/18/5 3/19/5 4/20/5
f 6/21/6 5/22/6 1/23/6 2/24/6
